<?xml version="1.0" encoding="UTF-8" standalone="no"?>
<svg
   data-name="Layer 1"
   width="441.04501"
   height="417.75897"
   viewBox="0 0 561.91068 532.24309"
   version="1.1"
   id="svg204"
   sodipodi:docname="education-blue.svg"
   inkscape:version="1.2.1 (9c6d41e, 2022-07-14)"
   xmlns:inkscape="http://www.inkscape.org/namespaces/inkscape"
   xmlns:sodipodi="http://sodipodi.sourceforge.net/DTD/sodipodi-0.dtd"
   xmlns="http://www.w3.org/2000/svg"
   xmlns:svg="http://www.w3.org/2000/svg">
  <defs
     id="defs208" />
  <sodipodi:namedview
     id="namedview206"
     pagecolor="#505050"
     bordercolor="#eeeeee"
     borderopacity="1"
     inkscape:showpageshadow="0"
     inkscape:pageopacity="0"
     inkscape:pagecheckerboard="0"
     inkscape:deskcolor="#505050"
     showgrid="false"
     inkscape:zoom="2.1582201"
     inkscape:cx="206.4201"
     inkscape:cy="233.98911"
     inkscape:window-width="1920"
     inkscape:window-height="1003"
     inkscape:window-x="0"
     inkscape:window-y="0"
     inkscape:window-maximized="1"
     inkscape:current-layer="svg204" />
  <path
     d="M 359.30936,406.05703 V 527.27001 H 66.941729 c -33.311368,0 -60.413825,-27.18884 -60.413825,-60.60649 0,-33.41764 27.102422,-60.60649 60.413825,-60.60649 z"
     fill="#f2f2f2"
     id="path138"
     style="stroke-width:0.91487" />
  <path
     d="m 366.49066,526.3376 a 4.490109,4.6639025 0 0 1 -4.4883,4.66204 H 61.734162 a 61.489897,63.869917 0 1 1 0,-127.73983 H 362.00236 a 4.4883137,4.6620377 0 0 1 0,9.32407 H 61.734162 a 52.513274,54.545845 0 1 0 0,109.09169 H 362.00236 a 4.490109,4.6639025 0 0 1 4.4883,4.66203 z"
     fill="#055b5c"
     id="path140"
     style="stroke-width:0.91487;fill:#055b5c;fill-opacity:1" />
  <path
     d="M 359.30936,434.02926 H 45.127402 a 0.89766511,0.93241 0 1 1 0,-1.86482 H 359.30936 a 0.89766511,0.93241 0 0 1 0,1.86482 z"
     fill="#cccccc"
     id="path142"
     style="stroke-width:0.91487;fill:#929292;fill-opacity:1" />
  <path
     d="M 359.30936,456.40704 H 45.127402 a 0.89766511,0.93241 0 1 1 0,-1.86482 H 359.30936 a 0.89766511,0.93241 0 0 1 0,1.86482 z"
     fill="#cccccc"
     id="path144"
     style="stroke-width:0.91487;fill:#929292;fill-opacity:1" />
  <path
     d="M 359.30936,478.78482 H 45.127402 a 0.89766511,0.93241 0 1 1 0,-1.86482 H 359.30936 a 0.89766511,0.93241 0 0 1 0,1.86482 z"
     fill="#cccccc"
     id="path146"
     style="stroke-width:0.91487;fill:#929292;fill-opacity:1" />
  <path
     d="M 359.30936,501.1626 H 45.127402 a 0.89766511,0.93241 0 1 1 0,-1.86482 H 359.30936 a 0.89766511,0.93241 0 0 1 0,1.86482 z"
     fill="#cccccc"
     id="path148"
     style="stroke-width:0.91487;fill:#929292;fill-opacity:1" />
  <path
     d="M 556.69066,457.42978 472.72264,525.08507 299.63417,321.71704 c -19.72113,-23.17108 -16.93182,-57.19876 6.21762,-75.8509 23.14944,-18.65213 58.02927,-14.97548 77.7504,8.19561 z"
     fill="#f2f2f2"
     id="path150"
     style="stroke-width:0.824549" />
  <path
     d="m 477.62006,529.55987 a 4.0644188,4.1852585 83.746124 0 1 -5.88674,-0.5199 L 293.96754,320.1764 a 55.660281,57.315122 83.746111 0 1 88.48939,-71.29827 L 560.2227,457.74172 a 4.062797,4.1835885 83.746124 1 1 -6.45909,5.20425 L 375.99783,254.08241 a 47.534686,48.947946 83.74613 1 0 -75.5712,60.88975 L 478.1924,523.83573 a 4.0644188,4.1852585 83.746124 0 1 -0.57234,5.72414 z"
     fill="#cccccc"
     id="path152"
     style="stroke-width:0.824549;fill:#b57bcc;fill-opacity:1" />
  <path
     d="M 537.31347,473.04255 351.31036,254.5007 a 0.81256505,0.8367235 83.746108 1 1 1.29183,-1.04085 l 186.00305,218.54188 a 0.81255874,0.83671701 83.746117 1 1 -1.29182,1.04084 z"
     fill="#cccccc"
     id="path154"
     style="stroke-width:0.824549;fill:#929292;fill-opacity:1" />
  <path
     d="M 521.81164,485.53274 335.80857,266.99089 a 0.81256252,0.8367209 83.746113 0 1 1.29182,-1.04084 L 523.10346,484.4919 a 0.81255977,0.83671807 83.746115 1 1 -1.29182,1.04084 z"
     fill="#cccccc"
     id="path156"
     style="stroke-width:0.824549;fill:#929292;fill-opacity:1" />
  <path
     d="M 506.30985,498.02298 320.30679,279.4811 a 0.81256722,0.83672575 83.746119 0 1 1.29182,-1.04086 l 186.00307,218.54187 a 0.81256201,0.83672038 83.746114 1 1 -1.29183,1.04084 z"
     fill="#cccccc"
     id="path158"
     style="stroke-width:0.824549;fill:#929292;fill-opacity:1" />
  <path
     d="M 490.80807,510.51316 304.80499,291.97134 a 0.8125635,0.83672191 83.74611 1 1 1.29182,-1.04085 l 186.00307,218.54183 a 0.81255874,0.83671701 83.746117 1 1 -1.29181,1.04084 z"
     fill="#cccccc"
     id="path160"
     style="display:inline;stroke-width:0.824549;fill:#929292;fill-opacity:1" />
  <path
     d="M 625.19238,531.93205 H -68.066491 a 0.93431361,0.93241 0 0 1 0,-1.86482 H 625.19238 a 0.93431361,0.93241 0 0 1 0,1.86482 z"
     fill="#cccccc"
     id="path162"
     style="display:inline;stroke-width:0.933359;fill:#929292;fill-opacity:1" />
  <polygon
     points="321.212,346.525 338.085,346.527 338.081,390.622 326.649,390.621 "
     fill="#ffb8b8"
     id="polygon164"
     transform="translate(-72.040577,1.8744713)"
     style="display:inline" />
  <path
     d="m 246.44183,389.22901 h 22.04781 v 13.88195 H 232.5599 v 0 a 13.88193,13.88193 0 0 1 13.88193,-13.88195 z"
     fill="#2f2e41"
     id="path166"
     style="display:inline" />
  <polygon
     points="204.417,346.525 221.29,346.527 221.286,390.622 209.854,390.621 "
     fill="#ffb8b8"
     id="polygon168"
     transform="translate(-72.040577,1.8744713)"
     style="display:inline" />
  <path
     d="m 129.64729,389.22901 h 22.04781 v 13.88195 h -35.92974 v 0 a 13.88193,13.88193 0 0 1 13.88193,-13.88195 z"
     fill="#2f2e41"
     id="path170" />
  <path
     d="m 187.43027,65.407541 v -5.00006 a 32.25,32.25 0 0 1 32.25,-32.25 h 6e-5 a 32.25,32.25 0 0 1 32.25,32.25 v 5.00006 a 23.25,23.25 0 0 1 -23.25,23.25 h -18 a 23.25,23.25 0 0 1 -23.25006,-23.25 z"
     fill="#2f2e41"
     id="path172" />
  <circle
     cx="219.68027"
     cy="65.816963"
     r="24.561029"
     fill="#ffb8b8"
     id="circle174" />
  <path
     d="M 334.56091,221.01949"
     fill="#ffb8b8"
     id="path176"
     style="stroke-width:0.824549" />
  <path
     d="m 86.084003,150.23003 a 9.377,9.377 0 0 1 14.280277,1.6774 l 21.05462,-3.98267 5.5409,12.20454 -29.812197,5.2067 a 9.42779,9.42779 0 0 1 -11.0636,-15.106 z"
     fill="#ffb8b8"
     id="path178" />
  <path
     d="m 200.53198,105.8457 0.27536,0.41722 -34.52582,22.74437 -58.25831,18.60329 a 3.5078,3.5078 0 0 0 -2.412,3.73827 l 1.2709,10.94662 a 3.50073,3.50073 0 0 0 4.21024,3.01849 l 54.82973,-11.75277 a 19.80593,19.80593 0 0 0 7.37148,-3.24548 l 38.78786,-27.59689 a 10.01984,10.01984 0 0 0 4.1584,-8.94749 9.9752,9.9752 0 0 0 -15.43253,-7.50841 z"
     fill="#cccccc"
     id="path180"
     style="fill:#b57bcc;fill-opacity:1" />
  <path
     d="m 254.81261,379.98315 a 4.51847,4.51847 0 0 1 -4.1377,-2.70118 L 198.265,247.78097 a 1.49982,1.49982 0 0 0 -2.80859,0.1582 L 152.6981,374.01293 a 4.50087,4.50087 0 0 1 -5.88159,2.89111 l -14.33838,-5.37695 a 4.48887,4.48887 0 0 1 -2.897,-3.70459 c -6.45044,-56.19238 49.80005,-198.02978 50.36914,-199.45556 l 0.15747,-0.395 51.2771,11.34277 0.10669,0.11621 c 20.45777,22.31787 37.27344,163.082 40.43677,191.07373 a 4.47857,4.47857 0 0 1 -2.97119,4.74658 l -12.65625,4.47608 a 4.45661,4.45661 0 0 1 -1.48825,0.25584 z"
     fill="#2f2e41"
     id="path182" />
  <path
     d="m 210.63194,183.88012 c -12.42358,0 -26.27441,-2.477 -30.53784,-12.70068 l -0.0981,-0.23487 0.13256,-0.21777 c 3.36524,-5.52149 7.813,-14.94043 5.42237,-16.7085 -4.70923,-3.48193 -6.99439,-9.21 -6.79151,-17.02539 0.44043,-16.96582 12.00049,-32.02881 28.76587,-37.482419 h 2.5e-4 a 127.64221,127.64221 0 0 1 14.26292,-3.67236 24.28073,24.28073 0 0 1 20.13257,4.971679 24.5264,24.5264 0 0 1 9.09594,18.8706 c 0.17578,18.13086 -2.61548,43.3833 -16.91211,60.72022 a 4.44777,4.44777 0 0 1 -2.633,1.53125 122.223,122.223 0 0 1 -20.83988,1.94824 z"
     fill="#cccccc"
     id="path184"
     style="fill:#b57bcc;fill-opacity:1" />
  <path
     d="m 206.01053,183.20124 a 9.55593,9.55593 0 0 1 11.67847,-6.66417 9.40742,9.40742 0 0 1 1.44781,0.53625 l 15.98666,-14.54884 11.118,7.49027 -22.86179,20.23092 a 9.53906,9.53906 0 0 1 -10.81319,4.58661 9.39418,9.39418 0 0 1 -6.55596,-11.63104 z"
     fill="#ffb8b8"
     id="path186" />
  <path
     d="m 232.59117,183.38598 a 4.48762,4.48762 0 0 1 -2.84546,-1.01514 l -6.30444,-5.15185 a 4.49995,4.49995 0 0 1 0.10913,-7.05518 l 26.44165,-20.27978 a 1.50334,1.50334 0 0 0 0.28345,-2.09473 l -16.32031,-21.57617 a 13.28507,13.28507 0 0 1 0.88745,-17.11426 v 0 a 13.24793,13.24793 0 0 1 17.88769,-1.43067 l 0.10327,0.10889 17.042,24.40235 a 15.19267,15.19267 0 0 1 -0.36011,24.18554 l -34.24561,26.13867 a 4.50736,4.50736 0 0 1 -2.67871,0.88233 z"
     fill="#cccccc"
     id="path188"
     style="fill:#b57bcc;fill-opacity:1" />
  <path
     d="m 197.92466,58.907511 v -12.18615 l 21.75561,-9.5 20.74439,9.5 v 12.18615 a 2,2 0 0 1 -2,2 h -38.5 a 2,2 0 0 1 -2,-2 z"
     fill="#2f2e41"
     id="path190" />
  <path
     d="m 218.68153,29.774111 c -3.19879,-10.23852 3.51931,-21.9723296 13.45085,-26.0249996 9.93154,-4.05267004 21.81344,-1.2197401 30.19368,5.47588 8.38024,6.6956196 13.57963,16.7244096 16.33459,27.0911796 2.75496,10.36677 3.27788,21.17682 3.7865,31.89135 12.20223,2.24139 20.50283,16.71428 16.27576,28.37833 -4.22707,11.664049 -19.87268,17.458789 -30.67781,11.362299 -10.80513,-6.09649 -13.93468,-22.484609 -6.13639,-32.133699 a 26.37385,26.37385 0 0 0 -30.68776,-40.9097 c -6.0138,2.51492 -13.55953,-4.01939 -12.53942,-5.13064 z"
     fill="#2f2e41"
     id="path192" />
  <path
     d="m 81.573593,102.95727 a 104.44868,104.44868 0 0 1 -42.34814,-9.274899 4.47254,4.47254 0 0 1 -2.65186,-4.104 v -36.41794 a 4.505,4.505 0 0 1 4.5,-4.5 h 80.999997 a 4.50508,4.50508 0 0 1 4.5,4.5 v 36.418 a 4.47272,4.47272 0 0 1 -2.65185,4.104 v 0 a 104.44869,104.44869 0 0 1 -42.348147,9.274839 z"
     fill="#055b5c"
     id="path194"
     style="fill:#055b5c;fill-opacity:1" />
  <path
     d="m 81.562483,73.454341 a 4.50521,4.50521 0 0 1 -1.74865,-0.35156 l -64.23194,-27.09961 a 4.49965,4.49965 0 0 1 0.15308,-8.353 l 64.23279,-24.36774 a 4.48365,4.48365 0 0 1 3.2113,0.007 l 63.372067,24.36767 a 4.50012,4.50012 0 0 1 0.15406,8.3379 l -63.372767,27.09899 a 4.507,4.507 0 0 1 -1.76994,0.36035 z"
     fill="#055b5c"
     id="path196"
     style="fill:#055b5c;fill-opacity:1" />
  <circle
     cx="44.073589"
     cy="90.160393"
     r="6"
     fill="#3f3d56"
     id="circle198"
     style="fill:#2f2e41;fill-opacity:1" />
  <path
     d="m 146.92418,42.148251 -63.373047,27.09918 a 3.99993,3.99993 0 0 1 -3.12744,0.008 l -64.23193,-27.09882 a 3.92451,3.92451 0 0 1 -1.9126,-1.68109 3.997,3.997 0 0 0 1.9126,5.68109 l 64.23193,27.09882 a 3.99993,3.99993 0 0 0 3.12744,-0.008 l 63.373047,-27.09918 a 3.99713,3.99713 0 0 0 1.89453,-5.67322 3.92676,3.92676 0 0 1 -1.89453,1.67322 z"
     opacity="0.2"
     id="path200" />
  <path
     d="m 44.577743,90.136951 a 1,1 0 0 0 1,-1 v -33.46142 l 32.9812,-12.01514 a 1.000111,1.000111 0 0 0 0.0298,-2 l -32.9812,12.01514 a 1.96167,1.96167 0 0 0 -1.43335,0.57519 1.98569,1.98569 0 0 0 -0.59644,1.42481 v 33.46142 a 1.00005,1.00005 0 0 0 1,1 z"
     fill="#3f3d56"
     id="path202"
     style="fill:#2f2e41;fill-opacity:1" />
</svg>
