<?xml version="1.0" encoding="UTF-8" standalone="no"?>
<svg
   id="visual"
   viewBox="0 0 2000 319"
   width="2000"
   height="319"
   version="1.1"
   sodipodi:docname="footer-wave-blue.svg"
   inkscape:version="1.2.1 (9c6d41e, 2022-07-14)"
   xmlns:inkscape="http://www.inkscape.org/namespaces/inkscape"
   xmlns:sodipodi="http://sodipodi.sourceforge.net/DTD/sodipodi-0.dtd"
   xmlns="http://www.w3.org/2000/svg"
   xmlns:svg="http://www.w3.org/2000/svg">
  <defs
     id="defs11" />
  <sodipodi:namedview
     id="namedview9"
     pagecolor="#505050"
     bordercolor="#eeeeee"
     borderopacity="1"
     inkscape:showpageshadow="0"
     inkscape:pageopacity="0"
     inkscape:pagecheckerboard="0"
     inkscape:deskcolor="#505050"
     showgrid="false"
     inkscape:zoom="0.6695"
     inkscape:cx="1014.1897"
     inkscape:cy="250.93353"
     inkscape:window-width="1920"
     inkscape:window-height="1003"
     inkscape:window-x="0"
     inkscape:window-y="0"
     inkscape:window-maximized="1"
     inkscape:current-layer="visual" />
  <path
     d="M 0.46776906,40.370056 30.767769,45.417464 c 30.4,5.180235 91.000001,15.275051 151.700001,26.166826 60.7,10.891776 121.3,22.314857 181.8,19.5255 60.5,-2.922183 120.9,-20.189632 181.4,-25.502693 60.5,-5.313062 121.1,1.328265 181.8,14.876571 60.7,13.415479 121.3,33.870762 182,31.878372 60.7,-1.9924 121.30003,-26.432484 182.00003,-39.847964 60.7,-13.548306 121.3,-16.204837 182,-14.212439 60.7,1.992398 121.3,8.633725 181.8,-2.65653 60.5,-11.290255 120.9,-40.512092 181.4,-50.4740815 60.5,-9.9619897 121.1,-0.6641326 181.8,24.1744285 60.7,24.705734 121.3,65.085 151.7,85.141806 l 30.3,20.18964 v 184.62887 h -30.3 c -30.4,0 -91,0 -151.7,0 -60.7,0 -121.3,0 -181.8,0 -60.5,0 -120.9,0 -181.4,0 -60.5,0 -121.1,0 -181.8,0 -60.7,0 -121.3,0 -182,0 -60.7,0 -121.30003,0 -182.00003,0 -60.7,0 -121.3,0 -182,0 -60.7,0 -121.3,0 -181.8,0 -60.5,0 -120.9,0 -181.4,0 -60.5,0 -121.1,0 -181.8,0 -60.7,0 -121.300001,0 -151.700001,0 H 0.46776906 Z"
     fill="#fa7268"
     id="path2"
     style="fill:#c5fbfc;fill-opacity:1;stroke-width:1.1525" />
  <path
     d="M 0.46776906,116.08118 30.767769,115.15139 c 30.4,-0.79696 91.000001,-2.65653 151.700001,9.29786 60.7,11.95439 121.3,37.72274 181.8,42.10601 60.5,4.38328 120.9,-12.35286 181.4,-16.60331 60.5,-4.25045 121.1,4.25045 181.8,-7.30546 60.7,-11.55591 121.3,-42.902975 182,-56.185628 60.7,-13.282653 121.30003,-8.500898 182.00003,-2.922184 60.7,5.578714 121.3,11.688735 182,19.658322 60.7,7.9696 121.3,17.79876 181.8,37.85557 60.5,20.18963 120.9,50.73973 181.4,48.74734 60.5,-1.9924 121.1,-36.5273 181.8,-50.73974 60.7,-14.07961 121.3,-7.96959 151.7,-4.78175 l 30.3,3.05501 v 181.97234 h -30.3 c -30.4,0 -91,0 -151.7,0 -60.7,0 -121.3,0 -181.8,0 -60.5,0 -120.9,0 -181.4,0 -60.5,0 -121.1,0 -181.8,0 -60.7,0 -121.3,0 -182,0 -60.7,0 -121.30003,0 -182.00003,0 -60.7,0 -121.3,0 -182,0 -60.7,0 -121.3,0 -181.8,0 -60.5,0 -120.9,0 -181.4,0 -60.5,0 -121.1,0 -181.8,0 -60.7,0 -121.300001,0 -151.700001,0 H 0.46776906 Z"
     fill="#c62368"
     id="path4"
     style="fill:#055b5c;fill-opacity:1;stroke-width:1.1525" />
  <path
     d="m 0.46776906,268.83169 30.29999994,7.30546 c 30.4,7.30546 91.000001,21.91638 151.700001,21.91638 60.7,0 121.3,-14.61092 181.8,-30.5501 60.5,-15.93919 120.9,-33.20664 181.4,-27.22944 60.5,5.97719 121.1,35.19903 181.8,39.5823 60.7,4.51611 121.3,-15.93918 182,-20.72094 60.7,-4.91458 121.30003,5.71155 182.00003,-9.29785 60.7,-15.14223 121.3,-55.78715 182,-49.80995 60.7,5.97719 121.3,58.5765 181.8,66.14761 60.5,7.57111 120.9,-30.15162 181.4,-50.20843 60.5,-20.18963 121.1,-22.84616 181.8,-26.16682 60.7,-3.32067 121.3,-7.30546 151.7,-9.29786 l 30.3,-1.9924 v 140.79612 h -30.3 c -30.4,0 -91,0 -151.7,0 -60.7,0 -121.3,0 -181.8,0 -60.5,0 -120.9,0 -181.4,0 -60.5,0 -121.1,0 -181.8,0 -60.7,0 -121.3,0 -182,0 -60.7,0 -121.30003,0 -182.00003,0 -60.7,0 -121.3,0 -182,0 -60.7,0 -121.3,0 -181.8,0 -60.5,0 -120.9,0 -181.4,0 -60.5,0 -121.1,0 -181.8,0 -60.7,0 -121.300001,0 -151.700001,0 H 0.46776906 Z"
     fill="#fa7268"
     id="path6"
     style="fill:#c5fbfc;fill-opacity:1;stroke-width:1.1525" />
</svg>
