<?xml version="1.0" encoding="UTF-8" standalone="no"?>
<svg
   id="visual"
   width="2000"
   height="940"
   version="1.1"
   sodipodi:docname="home-background-pink.svg"
   inkscape:version="1.2.1 (9c6d41e, 2022-07-14)"
   xmlns:inkscape="http://www.inkscape.org/namespaces/inkscape"
   xmlns:sodipodi="http://sodipodi.sourceforge.net/DTD/sodipodi-0.dtd"
   xmlns="http://www.w3.org/2000/svg"
   xmlns:svg="http://www.w3.org/2000/svg">
  <defs
     id="defs11" />
  <sodipodi:namedview
     id="namedview9"
     pagecolor="#505050"
     bordercolor="#eeeeee"
     borderopacity="1"
     inkscape:showpageshadow="0"
     inkscape:pageopacity="0"
     inkscape:pagecheckerboard="0"
     inkscape:deskcolor="#505050"
     showgrid="false"
     inkscape:zoom="0.47340799"
     inkscape:cx="1464.9098"
     inkscape:cy="633.70287"
     inkscape:window-width="1920"
     inkscape:window-height="1003"
     inkscape:window-x="0"
     inkscape:window-y="0"
     inkscape:window-maximized="1"
     inkscape:current-layer="visual" />
  <path
     d="m -0.59938253,941.0057 47.69999953,-11.7 c 47.599995,-11.6 142.999993,-34.99999 238.099993,-63.49999 95.2,-28.5 190.2,-62.1 285.4,-44.6 95.1,17.5 190.5,86.09999 285.8,88.59999 95.3,2.5 190.69999,-61.09999 285.99999,-66.79999 95.3,-5.7 190.7,46.7 285.8,48.2 95.2,1.5 190.2,-47.9 285.4,-55.5 95.1,-7.7 190.5,26.3 238.1,43.3 l 47.7,17 V 398.00575 h -47.7 c -47.6,0 -143,0 -238.1,0 -95.2,0 -190.2,0 -285.4,0 -95.1,0 -190.5,0 -285.8,0 -95.3,0 -190.69999,0 -285.99999,0 -95.3,0 -190.7,0 -285.8,0 -95.2,0 -190.2,0 -285.4,0 -95.1,0 -190.499998,0 -238.099993,0 H -0.59938253 Z"
     fill="#c5fbfc"
     id="path2"
     style="fill:#efd1d4;fill-opacity:1" />
  <path
     d="m -0.59938253,743.00571 47.69999953,-1.8 c 47.599995,-1.9 142.999993,-5.5 238.099993,-0.4 95.2,5.2 190.2,19.2 285.4,34.7 95.1,15.5 190.5,32.5 285.8,30.3 95.3,-2.1 190.69999,-23.5 285.99999,-45.3 95.3,-21.8 190.7,-44.2 285.8,-57.3 95.2,-13.2 190.2,-17.2 285.4,3.6 95.1,20.9 190.5,66.5 238.1,89.4 l 47.7,22.8 V 398.00575 h -47.7 c -47.6,0 -143,0 -238.1,0 -95.2,0 -190.2,0 -285.4,0 -95.1,0 -190.5,0 -285.8,0 -95.3,0 -190.69999,0 -285.99999,0 -95.3,0 -190.7,0 -285.8,0 -95.2,0 -190.2,0 -285.4,0 -95.1,0 -190.499998,0 -238.099993,0 H -0.59938253 Z"
     fill="#b57bcc"
     id="path4"
     style="fill:#b63e48;fill-opacity:1" />
  <path
     d="m -0.59938253,652.00571 47.69999953,-9.3 c 47.599995,-9.39996 142.999993,-27.99996 238.099993,-20.49996 95.2,7.5 190.2,41.09996 285.4,41.59996 95.1,0.5 190.5,-32.09996 285.8,-33.99996 95.3,-1.8 190.69999,27.19996 285.99999,35.49996 95.3,8.4 190.7,-4 285.8,-18 95.2,-13.99996 190.2,-29.59996 285.4,-31.99996 95.1,-2.3 190.5,8.7 238.1,14.2 l 47.7,5.49996 V 398.00575 h -47.7 c -47.6,0 -143,0 -238.1,0 -95.2,0 -190.2,0 -285.4,0 -95.1,0 -190.5,0 -285.8,0 -95.3,0 -190.69999,0 -285.99999,0 -95.3,0 -190.7,0 -285.8,0 -95.2,0 -190.2,0 -285.4,0 -95.1,0 -190.499998,0 -238.099993,0 H -0.59938253 Z"
     fill="#c5fbfc"
     id="path6"
     style="fill:#efd1d4;fill-opacity:1" />
  <rect
     style="fill:#efd1d4;fill-opacity:1;stroke-width:0.822198"
     id="rect900"
     width="1999.4647"
     height="533.80225"
     x="-0.23522787"
     y="-94.911743" />
</svg>
