<?xml version="1.0" encoding="UTF-8" standalone="no"?>
<!-- Created with Inkscape (http://www.inkscape.org/) -->

<svg
   width="1644.094"
   height="779.80298"
   viewBox="0 0 434.99987 206.32285"
   version="1.1"
   id="svg5"
   inkscape:version="1.2.1 (9c6d41e, 2022-07-14)"
   sodipodi:docname="home-background.svg"
   xmlns:inkscape="http://www.inkscape.org/namespaces/inkscape"
   xmlns:sodipodi="http://sodipodi.sourceforge.net/DTD/sodipodi-0.dtd"
   xmlns="http://www.w3.org/2000/svg"
   xmlns:svg="http://www.w3.org/2000/svg">
  <sodipodi:namedview
     id="namedview7"
     pagecolor="#505050"
     bordercolor="#eeeeee"
     borderopacity="1"
     inkscape:showpageshadow="0"
     inkscape:pageopacity="0"
     inkscape:pagecheckerboard="0"
     inkscape:deskcolor="#505050"
     inkscape:document-units="mm"
     showgrid="false"
     inkscape:zoom="0.5"
     inkscape:cx="629"
     inkscape:cy="610"
     inkscape:window-width="1920"
     inkscape:window-height="1003"
     inkscape:window-x="0"
     inkscape:window-y="0"
     inkscape:window-maximized="1"
     inkscape:current-layer="layer2" />
  <defs
     id="defs2">
    <inkscape:path-effect
       effect="bspline"
       id="path-effect7143"
       is_visible="true"
       lpeversion="1"
       weight="33.333333"
       steps="2"
       helper_size="0"
       apply_no_weight="true"
       apply_with_weight="true"
       only_selected="false" />
    <inkscape:path-effect
       effect="bspline"
       id="path-effect6360"
       is_visible="true"
       lpeversion="1"
       weight="33.333333"
       steps="2"
       helper_size="0"
       apply_no_weight="true"
       apply_with_weight="true"
       only_selected="false" />
    <inkscape:path-effect
       effect="bspline"
       id="path-effect5459"
       is_visible="true"
       lpeversion="1"
       weight="33.333333"
       steps="2"
       helper_size="0"
       apply_no_weight="true"
       apply_with_weight="true"
       only_selected="false" />
  </defs>
  <g
     inkscape:groupmode="layer"
     id="layer2"
     inkscape:label="Warstwa 2">
    <path
       id="path5457"
       style="fill:#efd2d5;fill-opacity:1;stroke-width:0.303545"
       d="M -0.31470947,-0.42839762 V 167.8239 H 162.57509 c 10.05381,-4.71272 20.609,-8.99057 31.8146,-11.7764 25.44129,-6.32491 54.0984,-5.02535 82.76394,4.04674 6.98662,2.21103 13.96712,4.89957 20.91758,7.72966 h 98.53869 c 0.8204,-0.25968 1.64243,-0.51455 2.46548,-0.76664 1.03341,-0.39128 2.04655,-0.82591 3.06752,-1.24413 1.08092,-0.45223 2.19224,-0.8356 3.30677,-1.21035 1.55606,-0.57348 3.14845,-1.04048 4.76715,-1.43722 2.26741,-0.46057 4.51771,-0.9885 6.77995,-1.47003 2.33317,-0.47959 4.66029,-0.97774 6.96702,-1.55611 1.52757,-0.40045 3.03309,-0.8641 4.57853,-1.20417 1.73793,-0.31418 3.49696,-0.51923 5.24516,-0.77948 0.33761,-0.0525 0.67453,-0.10801 1.01182,-0.16218 V -0.42839762 Z M 432.0465,160.14275 c -1.02595,0.14206 -2.05129,0.28781 -3.0701,0.4675 -0.52369,0.1145 -1.0389,0.25655 -1.55546,0.39378 0.005,0.01 0.0109,0.0191 0.0155,0.0285 0.34192,-0.0534 0.68456,-0.10353 1.02888,-0.14173 0.46538,-0.0516 0.97004,-0.20672 1.43712,-0.20593 h 10e-4 c 0.71491,-0.17881 1.42628,-0.3697 2.14303,-0.54216 z m -26.16843,7.40769 c -0.36818,0.0915 -0.73681,0.18149 -1.10484,0.27346 h 0.0899 c 0.33708,-0.0948 0.67655,-0.18234 1.01493,-0.27346 z m 28.92123,0.18119 c -0.121,0.0307 -0.2418,0.0619 -0.36277,0.0923 h 0.36277 z" />
    <path
       fill="#efd1d4"
       fill-opacity="1"
       d="m 0.36629101,185.4346 18.12857399,2.83104 c 18.128574,2.72521 54.385722,8.54604 90.642865,12.7 36.25714,4.31271 72.51429,6.95854 108.77144,1.40229 36.25715,-5.55625 72.5143,-19.84375 108.77145,-23.99771 36.25714,-4.31271 72.51429,1.50813 90.64287,4.23333 l 18.12857,2.83105 v -33.86667 h -18.12857 c -18.12858,0 -54.38573,0 -90.64287,0 -36.25715,0 -72.5143,0 -108.77145,0 -36.25715,0 -72.5143,0 -108.77144,0 -36.257143,0 -72.514291,0 -90.642865,0 H 0.36629101 Z"
       id="path1018"
       style="stroke-width:0.28274" />
  </g>
</svg>
