<?xml version="1.0" encoding="UTF-8" standalone="no"?>
<svg
   id="visual"
   viewBox="0 0 905 599.75064"
   width="905"
   height="599.75061"
   version="1.1"
   sodipodi:docname="second-blob-blue.svg"
   inkscape:version="1.2.1 (9c6d41e, 2022-07-14)"
   xmlns:inkscape="http://www.inkscape.org/namespaces/inkscape"
   xmlns:sodipodi="http://sodipodi.sourceforge.net/DTD/sodipodi-0.dtd"
   xmlns:xlink="http://www.w3.org/1999/xlink"
   xmlns="http://www.w3.org/2000/svg"
   xmlns:svg="http://www.w3.org/2000/svg">
  <sodipodi:namedview
     id="namedview10"
     pagecolor="#505050"
     bordercolor="#eeeeee"
     borderopacity="1"
     inkscape:showpageshadow="0"
     inkscape:pageopacity="0"
     inkscape:pagecheckerboard="0"
     inkscape:deskcolor="#505050"
     showgrid="false"
     inkscape:zoom="0.68611852"
     inkscape:cx="179.99806"
     inkscape:cy="298.7822"
     inkscape:window-width="1920"
     inkscape:window-height="1003"
     inkscape:window-x="0"
     inkscape:window-y="0"
     inkscape:window-maximized="1"
     inkscape:current-layer="visual" />
  <defs
     id="defs62">
    <linearGradient
       id="linearGradient10887">
      <stop
         style="stop-color:#e1c4f1;stop-opacity:1;"
         offset="0"
         id="stop10883" />
      <stop
         style="stop-color:#ebd4f3;stop-opacity:1;"
         offset="1"
         id="stop10885" />
    </linearGradient>
    <linearGradient
       xlink:href="#linearGradient10887"
       id="linearGradient10889"
       x1="68.202652"
       y1="98.560814"
       x2="309.5434"
       y2="17.215725"
       gradientUnits="userSpaceOnUse" />
  </defs>
  <g
     transform="matrix(1.5672119,0,0,1,383.40768,269.5109)"
     id="g57"
     style="fill:#b63e48;fill-opacity:1">
    <path
       id="path55"
       style="display:inline;fill:url(#linearGradient10889);fill-opacity:1;stroke-width:1.07628"
       d="m -72.153641,-268.7257 c -39.232769,1.03613 -77.679429,16.64797 -99.321669,45.59588 -34.62763,46.31646 -26.13367,126.782888 -38.07053,202.397066 -11.93686,75.721869 -44.19954,146.708684 -32.47776,215.644764 11.72177,69.04356 67.53863,136.25958 128.51318,135.18243 C -52.428246,329.125 13.928647,259.9703 95.013083,230.67257 142.64873,213.46053 195.26478,209.9766 237.3199,202.7529 c 20.05475,-1.05837 40.14948,-6.1858 58.115,-18.92166 0.41341,-0.27895 0.89847,-0.50889 1.30136,-0.79524 0.0118,-0.16546 0.0651,-0.24955 0.25331,-0.38921 0.2429,-0.19424 0.48489,-0.39257 0.73042,-0.57855 0.28246,-0.21644 0.56548,-0.43284 0.84703,-0.65218 0.31157,-0.24254 0.62071,-0.48861 0.92207,-0.76158 0.41244,-0.38016 0.82129,-0.77083 1.22229,-1.18023 0.43928,-0.43645 0.88516,-0.8534 1.33219,-1.26861 0.4049,-0.46222 0.80709,-0.93065 1.21826,-1.37798 1.07956,-1.13926 2.16007,-2.27573 3.24604,-3.39976 1.32455,-1.57853 2.68844,-3.07193 4.01935,-4.6368 l 10e-4,-0.002 0.001,-0.002 c 0.12688,-0.1492 0.25717,-0.29114 0.38332,-0.4418 1.51205,-1.77362 2.8918,-3.78638 4.24316,-5.84859 1.10808,-1.68906 2.13272,-3.50318 3.16294,-5.30792 -0.006,0.0237 -0.0122,0.0479 -0.0188,0.0715 0.22734,-0.39813 0.45798,-0.7922 0.68486,-1.19076 1.24022,-2.18701 2.43702,-4.43344 3.62666,-6.688 0.85253,-1.61339 1.64079,-3.30359 2.38292,-5.04284 -0.0505,0.0826 -0.10087,0.16559 -0.15145,0.24824 -0.15143,0.24752 -0.30281,0.49503 -0.45433,0.74266 -0.0175,0.0281 -0.0317,0.0111 -0.0201,-0.0231 0.30541,-0.898 0.61119,-1.79697 0.91671,-2.69498 0.17779,-0.47289 0.35558,-0.94743 0.53207,-1.42217 0.002,-0.0108 0.003,-0.0212 0.005,-0.0316 1.39236,-3.74658 2.72273,-7.56198 3.58109,-11.70349 0.5755,-2.78082 1.09237,-5.58455 1.63373,-8.38159 0.0854,-0.44089 0.17524,-0.87976 0.26403,-1.31909 0.97978,-8.35347 1.38833,-16.87212 1.19951,-25.355119 0.18159,-4.633404 0.24144,-9.277792 0.0563,-13.901978 -0.98254,-24.591038 -6.96248,-48.396146 -16.04521,-68.491646 -7.41518,-16.4060464 -16.89434,-30.491905 -27.6918,-41.325144 -16.10775,-16.16095 -34.6841,-24.770964 -53.1307,-32.9078 -0.0372,-0.01285 -0.074,-0.02933 -0.11124,-0.04208 -1.06126,-0.384155 -2.12764,-0.736403 -3.18974,-1.115019 -1.19284,-0.416136 -2.38153,-0.86308 -3.57439,-1.279117 -1.31541,-0.485892 -2.63235,-0.96173 -3.93223,-1.544197 -1.32997,-0.57997 -2.6568,-1.177811 -3.98583,-1.762993 -1.38616,-0.607285 -2.77111,-1.221136 -4.17348,-1.731436 -1.07101,-0.40869 -2.14149,-0.822456 -3.20717,-1.26439 -1.06328,-0.42136 -2.12339,-0.860486 -3.18572,-1.287531 -1.15596,-0.469519 -2.3089,-0.957726 -3.46181,-1.445318 -1.34307,-0.57382 -2.68217,-1.170361 -4.01533,-1.798758 -1.28949,-0.607157 -2.57742,-1.223506 -3.86119,-1.859768 -1.09589,-0.549776 -2.20124,-1.054459 -3.29428,-1.61783 -1.2859,-0.674349 -2.56535,-1.375171 -3.8411,-2.095395 -1.18558,-0.641368 -2.37837,-1.252511 -3.57842,-1.824004 -1.0521,-0.501164 -2.10767,-0.978586 -3.15624,-1.497913 -0.90774,-0.454135 -1.81099,-0.933052 -2.70994,-1.428487 -0.90055,-0.478048 -1.79461,-0.984161 -2.69654,-1.455838 -0.79463,-0.406517 -1.59731,-0.775258 -2.40168,-1.131849 -0.0915,-0.02402 -0.18503,-0.02847 -0.27609,-0.0568 -0.77054,-0.239505 -3.54624,-1.613475 -4.36781,-2.011245 -0.37932,-0.193155 -0.74855,-0.430495 -1.12713,-0.626935 -0.37935,-0.177805 -0.75978,-0.350095 -1.13785,-0.534374 -1.02002,-0.498743 -2.03426,-1.022259 -3.0517,-1.533669 -1.14934,-0.563555 -2.30559,-1.092242 -3.45779,-1.640975 -1.23834,-0.602052 -2.48454,-1.168741 -3.72315,-1.769306 -1.18381,-0.569091 -2.36577,-1.14695 -3.54223,-1.752471 -9.4e-4,-4.84e-4 -0.002,-0.0016 -0.003,-0.0021 -0.1473,-0.07583 -0.29658,-0.141721 -0.44362,-0.218791 -1.20453,-0.603086 -2.40744,-1.215424 -3.59449,-1.899734 -1.23144,-0.70647 -2.45693,-1.43555 -3.67625,-2.19217 -0.0216,-0.0135 -0.0428,-0.0285 -0.0643,-0.0421 -4.1e-4,-2e-4 -9.4e-4,2e-4 -10e-4,0 -1.0686,-0.66883 -2.13739,-1.33929 -3.18841,-2.07435 -1.32124,-0.93154 -2.6361,-1.88255 -3.95099,-2.83595 -1.47063,-1.07488 -2.92732,-2.19854 -4.37316,-3.35347 -1.26469,-1.01793 -2.51144,-2.08893 -3.74997,-3.18306 -1.24969,-1.13806 -2.48747,-2.30763 -3.68026,-3.58911 -0.65131,-0.70851 -1.29529,-1.43249 -1.93931,-2.15641 -0.7409,-0.62273 -1.47657,-1.26095 -2.19396,-1.95023 -0.022,-0.0208 -0.0437,-0.0423 -0.0657,-0.0631 -0.0118,-0.009 -0.023,-0.0187 -0.0348,-0.0273 -0.71334,-0.68979 -1.42855,-1.37671 -2.14972,-2.04701 -2.02415,-1.83612 -4.04837,-3.67192 -6.07258,-5.50776 -0.0264,-0.0266 -0.0527,-0.0533 -0.0791,-0.0799 0.89236,0.80849 1.78479,1.61681 2.67777,2.42358 0.25419,0.22966 -0.5071,-0.46506 -0.7599,-0.69847 -0.25072,-0.23149 -0.50005,-0.46422 -0.75053,-0.69634 -0.73763,-0.68768 -1.4725,-1.38393 -2.20334,-2.08909 -1.04338,-1.06158 -2.08841,-2.11866 -3.12541,-3.19568 -0.14875,-0.16876 -0.27847,-0.31032 -0.45032,-0.51334 -0.21362,-0.25237 -0.42561,-0.50749 -0.63527,-0.76789 -0.13324,-0.1655 -0.24426,-0.3832 -0.39402,-0.50912 -0.43498,-0.36572 -0.86307,-0.75643 -1.29467,-1.13396 -2.31018,-2.44165 -4.61114,-4.90559 -6.89145,-7.41382 -1.72796,-1.90066 -3.4386,-3.8403 -5.1505,-5.77706 C 67.390008,-189.62739 38.31833,-233.77779 -4.1410559,-254.58388 -24.788557,-264.7223 -48.613935,-269.34737 -72.153641,-268.7257 Z" />
  </g>
</svg>
