<?xml version="1.0" encoding="UTF-8" standalone="no"?>
<svg
   id="visual"
   width="800.69891"
   height="755.66699"
   version="1.1"
   sodipodi:docname="third-blob-pink.svg"
   inkscape:version="1.2.1 (9c6d41e, 2022-07-14)"
   xmlns:inkscape="http://www.inkscape.org/namespaces/inkscape"
   xmlns:sodipodi="http://sodipodi.sourceforge.net/DTD/sodipodi-0.dtd"
   xmlns:xlink="http://www.w3.org/1999/xlink"
   xmlns="http://www.w3.org/2000/svg"
   xmlns:svg="http://www.w3.org/2000/svg">
  <defs
     id="defs44">
    <linearGradient
       inkscape:collect="always"
       id="linearGradient874">
      <stop
         style="stop-color:#c1d6b1;stop-opacity:1;"
         offset="0"
         id="stop870" />
      <stop
         style="stop-color:#c75e66;stop-opacity:1;"
         offset="1"
         id="stop872" />
    </linearGradient>
    <linearGradient
       inkscape:collect="always"
       id="linearGradient945">
      <stop
         style="stop-color:#acc999;stop-opacity:1;"
         offset="0"
         id="stop941" />
      <stop
         style="stop-color:#c1d6b1;stop-opacity:1;"
         offset="1"
         id="stop943" />
    </linearGradient>
    <linearGradient
       inkscape:collect="always"
       xlink:href="#linearGradient874"
       id="linearGradient947"
       x1="40.748264"
       y1="-11.395716"
       x2="-229.37074"
       y2="-213.43199"
       gradientUnits="userSpaceOnUse" />
    <linearGradient
       inkscape:collect="always"
       xlink:href="#linearGradient945"
       id="linearGradient6506"
       gradientUnits="userSpaceOnUse"
       x1="40.748264"
       y1="-11.395716"
       x2="-229.37074"
       y2="-213.43199" />
  </defs>
  <sodipodi:namedview
     id="namedview42"
     pagecolor="#505050"
     bordercolor="#eeeeee"
     borderopacity="1"
     inkscape:showpageshadow="0"
     inkscape:pageopacity="0"
     inkscape:pagecheckerboard="0"
     inkscape:deskcolor="#505050"
     showgrid="false"
     inkscape:zoom="0.68583333"
     inkscape:cx="747.2661"
     inkscape:cy="473.87607"
     inkscape:window-width="1920"
     inkscape:window-height="1003"
     inkscape:window-x="0"
     inkscape:window-y="0"
     inkscape:window-maximized="1"
     inkscape:current-layer="visual" />
  <g
     transform="matrix(1.6467567,0,0,1.6470447,381.86218,451.22929)"
     id="g39"
     style="fill:url(#linearGradient947);fill-opacity:1">
    <path
       d="m 108.5,-177.6 c 37.4,32.9 76.8,54 104.1,88 27.3,34.1 42.4,81.3 41.8,130.3 -0.7,48.9 -17.2,99.7 -53.4,123.2 -36.3,23.6 -92.2,19.8 -138.3,19.6 -46.1,-0.2 -82.3,3.1 -121.7,-0.3 -39.4,-3.5 -82,-13.8 -103.9,-41 -21.9,-27.1 -23,-71.2 -35.6,-117.5 -12.6,-46.2 -36.7,-94.7 -32,-140.4 4.7,-45.7 38.1,-88.7 81.3,-118.9 43.2,-30.3 96.2,-47.8 140.5,-34.2 44.2,13.6 79.7,58.3 117.2,91.2"
       fill="#BB004B"
       id="path37"
       style="fill:url(#linearGradient6506);fill-opacity:1" />
  </g>
</svg>
